<svg viewBox="0 0 1024 1024"><path d="M341.333333 533.333333a128 128 0 0 1 128 128v149.333334a128 128 0 0 1-128 128H192a128 128 0 0 1-128-128v-149.333334a128 128 0 0 1 128-128h149.333333z m469.333334 0a128 128 0 0 1 128 128v149.333334a128 128 0 0 1-128 128h-149.333334a128 128 0 0 1-128-128v-149.333334a128 128 0 0 1 128-128h149.333334z m-469.333334 64H192a64 64 0 0 0-63.893333 60.245334L128 661.333333v149.333334a64 64 0 0 0 60.245333 63.893333L192 874.666667h149.333333a64 64 0 0 0 63.893334-60.245334L405.333333 810.666667v-149.333334a64 64 0 0 0-60.245333-63.893333L341.333333 597.333333z m469.333334 0h-149.333334a64 64 0 0 0-63.893333 60.245334L597.333333 661.333333v149.333334a64 64 0 0 0 60.245334 63.893333L661.333333 874.666667h149.333334a64 64 0 0 0 63.893333-60.245334L874.666667 810.666667v-149.333334a64 64 0 0 0-60.245334-63.893333L810.666667 597.333333zM341.333333 64a128 128 0 0 1 128 128v149.333333a128 128 0 0 1-128 128H192a128 128 0 0 1-128-128V192a128 128 0 0 1 128-128h149.333333z m469.333334 0a128 128 0 0 1 128 128v149.333333a128 128 0 0 1-128 128h-149.333334a128 128 0 0 1-128-128V192a128 128 0 0 1 128-128h149.333334zM341.333333 128H192a64 64 0 0 0-63.893333 60.245333L128 192v149.333333a64 64 0 0 0 60.245333 63.893334L192 405.333333h149.333333a64 64 0 0 0 63.893334-60.245333L405.333333 341.333333V192a64 64 0 0 0-60.245333-63.893333L341.333333 128z m469.333334 0h-149.333334a64 64 0 0 0-63.893333 60.245333L597.333333 192v149.333333a64 64 0 0 0 60.245334 63.893334L661.333333 405.333333h149.333334a64 64 0 0 0 63.893333-60.245333L874.666667 341.333333V192a64 64 0 0 0-60.245334-63.893333L810.666667 128z" p-id="6148"></path></svg>